<mxfile host="Electron" agent="Mozilla/5.0 (X11; Linux x86_64) AppleWebKit/537.36 (KHTML, like Gecko) draw.io/24.7.17 Chrome/128.0.6613.36 Electron/32.0.1 Safari/537.36" version="24.7.17">
  <diagram name="Page-1" id="magkBhk4KmJtrxDzVgJV">
    <mxGraphModel dx="1339" dy="831" grid="1" gridSize="10" guides="0" tooltips="1" connect="1" arrows="1" fold="1" page="1" pageScale="1" pageWidth="1" pageHeight="1" math="0" shadow="0">
      <root>
        <mxCell id="0" />
        <mxCell id="1" parent="0" />
        <mxCell id="6Fi_e5lVrd8VuNeaOpWh-1" value="Módulo de Ordem de Compra" style="swimlane;whiteSpace=wrap;html=1;" parent="1" vertex="1">
          <mxGeometry x="160" y="10" width="440" height="790" as="geometry" />
        </mxCell>
        <mxCell id="ZrFBVHlQQ-QCRuyaV6K0-4" style="edgeStyle=none;curved=1;rounded=0;orthogonalLoop=1;jettySize=auto;html=1;exitX=1;exitY=1;exitDx=0;exitDy=0;entryX=1;entryY=0;entryDx=0;entryDy=0;fontSize=12;startSize=8;endSize=8;dashed=1;" edge="1" parent="6Fi_e5lVrd8VuNeaOpWh-1" source="6Fi_e5lVrd8VuNeaOpWh-6" target="6Fi_e5lVrd8VuNeaOpWh-10">
          <mxGeometry relative="1" as="geometry">
            <Array as="points">
              <mxPoint x="370" y="470" />
            </Array>
          </mxGeometry>
        </mxCell>
        <mxCell id="ZrFBVHlQQ-QCRuyaV6K0-5" value="&amp;lt;&amp;lt;includes&amp;gt;&amp;gt;" style="edgeLabel;html=1;align=center;verticalAlign=middle;resizable=0;points=[];fontSize=12;" vertex="1" connectable="0" parent="ZrFBVHlQQ-QCRuyaV6K0-4">
          <mxGeometry x="-0.7199" y="-4" relative="1" as="geometry">
            <mxPoint as="offset" />
          </mxGeometry>
        </mxCell>
        <mxCell id="6Fi_e5lVrd8VuNeaOpWh-6" value="UC-09&lt;div&gt;Cancelar ordem de compra&lt;/div&gt;" style="ellipse;whiteSpace=wrap;html=1;" parent="6Fi_e5lVrd8VuNeaOpWh-1" vertex="1">
          <mxGeometry x="140" y="310" width="160" height="80" as="geometry" />
        </mxCell>
        <mxCell id="ZrFBVHlQQ-QCRuyaV6K0-2" style="edgeStyle=none;curved=1;rounded=0;orthogonalLoop=1;jettySize=auto;html=1;exitX=0.5;exitY=1;exitDx=0;exitDy=0;entryX=0.5;entryY=0;entryDx=0;entryDy=0;fontSize=12;startSize=8;endSize=8;dashed=1;" edge="1" parent="6Fi_e5lVrd8VuNeaOpWh-1" source="6Fi_e5lVrd8VuNeaOpWh-9" target="6Fi_e5lVrd8VuNeaOpWh-10">
          <mxGeometry relative="1" as="geometry" />
        </mxCell>
        <mxCell id="ZrFBVHlQQ-QCRuyaV6K0-3" value="&amp;lt;&amp;lt;includes&amp;gt;&amp;gt;" style="edgeLabel;html=1;align=center;verticalAlign=middle;resizable=0;points=[];fontSize=12;" vertex="1" connectable="0" parent="ZrFBVHlQQ-QCRuyaV6K0-2">
          <mxGeometry x="-0.3095" y="-1" relative="1" as="geometry">
            <mxPoint x="1" as="offset" />
          </mxGeometry>
        </mxCell>
        <mxCell id="6Fi_e5lVrd8VuNeaOpWh-9" value="UC-10&lt;div&gt;Modificar ordem de compra&lt;/div&gt;" style="ellipse;whiteSpace=wrap;html=1;" parent="6Fi_e5lVrd8VuNeaOpWh-1" vertex="1">
          <mxGeometry x="140" y="430" width="160" height="80" as="geometry" />
        </mxCell>
        <mxCell id="6Fi_e5lVrd8VuNeaOpWh-10" value="UC-11&lt;div&gt;&lt;span style=&quot;background-color: initial;&quot;&gt;Consultar status da ordem de compra&lt;/span&gt;&lt;/div&gt;" style="ellipse;whiteSpace=wrap;html=1;" parent="6Fi_e5lVrd8VuNeaOpWh-1" vertex="1">
          <mxGeometry x="140" y="550" width="160" height="80" as="geometry" />
        </mxCell>
        <mxCell id="ZrFBVHlQQ-QCRuyaV6K0-6" style="edgeStyle=none;curved=1;rounded=0;orthogonalLoop=1;jettySize=auto;html=1;exitX=0.5;exitY=0;exitDx=0;exitDy=0;entryX=0.5;entryY=1;entryDx=0;entryDy=0;fontSize=12;startSize=8;endSize=8;dashed=1;" edge="1" parent="6Fi_e5lVrd8VuNeaOpWh-1" source="6Fi_e5lVrd8VuNeaOpWh-11" target="6Fi_e5lVrd8VuNeaOpWh-10">
          <mxGeometry relative="1" as="geometry" />
        </mxCell>
        <mxCell id="ZrFBVHlQQ-QCRuyaV6K0-7" value="&amp;lt;&amp;lt;includes&amp;gt;&amp;gt;" style="edgeLabel;html=1;align=center;verticalAlign=middle;resizable=0;points=[];fontSize=12;" vertex="1" connectable="0" parent="ZrFBVHlQQ-QCRuyaV6K0-6">
          <mxGeometry x="-0.0714" y="1" relative="1" as="geometry">
            <mxPoint x="1" as="offset" />
          </mxGeometry>
        </mxCell>
        <mxCell id="6Fi_e5lVrd8VuNeaOpWh-11" value="UC-12&lt;div&gt;Consultar histórico de ordens de compra&lt;/div&gt;" style="ellipse;whiteSpace=wrap;html=1;" parent="6Fi_e5lVrd8VuNeaOpWh-1" vertex="1">
          <mxGeometry x="140" y="670" width="160" height="80" as="geometry" />
        </mxCell>
        <mxCell id="MwLFwoTEqC4EJp1DN-AQ-2" style="edgeStyle=orthogonalEdgeStyle;rounded=0;orthogonalLoop=1;jettySize=auto;html=1;exitX=0.5;exitY=0;exitDx=0;exitDy=0;entryX=0.5;entryY=1;entryDx=0;entryDy=0;dashed=1;" parent="6Fi_e5lVrd8VuNeaOpWh-1" source="6Fi_e5lVrd8VuNeaOpWh-16" target="MwLFwoTEqC4EJp1DN-AQ-1" edge="1">
          <mxGeometry relative="1" as="geometry" />
        </mxCell>
        <mxCell id="MwLFwoTEqC4EJp1DN-AQ-3" value="&amp;lt;&amp;lt;extends&amp;gt;&amp;gt;" style="edgeLabel;html=1;align=center;verticalAlign=middle;resizable=0;points=[];" parent="MwLFwoTEqC4EJp1DN-AQ-2" vertex="1" connectable="0">
          <mxGeometry x="-0.1071" relative="1" as="geometry">
            <mxPoint as="offset" />
          </mxGeometry>
        </mxCell>
        <mxCell id="6Fi_e5lVrd8VuNeaOpWh-16" value="UC-08&lt;div&gt;&lt;span style=&quot;background-color: initial;&quot;&gt;Efetivar ordem de compra&lt;/span&gt;&lt;/div&gt;" style="ellipse;whiteSpace=wrap;html=1;" parent="6Fi_e5lVrd8VuNeaOpWh-1" vertex="1">
          <mxGeometry x="140" y="190" width="160" height="80" as="geometry" />
        </mxCell>
        <mxCell id="MwLFwoTEqC4EJp1DN-AQ-1" value="UC-07&lt;div&gt;Simular ordem de compra&lt;/div&gt;" style="ellipse;whiteSpace=wrap;html=1;" parent="6Fi_e5lVrd8VuNeaOpWh-1" vertex="1">
          <mxGeometry x="140" y="70" width="160" height="80" as="geometry" />
        </mxCell>
        <mxCell id="MwLFwoTEqC4EJp1DN-AQ-5" value="" style="endArrow=none;html=1;rounded=0;entryX=1;entryY=0.5;entryDx=0;entryDy=0;" parent="6Fi_e5lVrd8VuNeaOpWh-1" target="MwLFwoTEqC4EJp1DN-AQ-1" edge="1">
          <mxGeometry width="50" height="50" relative="1" as="geometry">
            <mxPoint x="400" y="410" as="sourcePoint" />
            <mxPoint x="420" y="120" as="targetPoint" />
          </mxGeometry>
        </mxCell>
        <mxCell id="XbBQ54yWR8MxngpIoZ2N-2" style="edgeStyle=none;curved=1;rounded=0;orthogonalLoop=1;jettySize=auto;html=1;fontSize=12;startSize=8;endSize=8;endArrow=none;endFill=0;" parent="1" source="6Fi_e5lVrd8VuNeaOpWh-2" edge="1">
          <mxGeometry relative="1" as="geometry">
            <mxPoint x="200" y="420" as="targetPoint" />
          </mxGeometry>
        </mxCell>
        <mxCell id="6Fi_e5lVrd8VuNeaOpWh-2" value="Usuário" style="shape=umlActor;verticalLabelPosition=bottom;verticalAlign=top;html=1;outlineConnect=0;" parent="1" vertex="1">
          <mxGeometry x="100" y="390" width="30" height="60" as="geometry" />
        </mxCell>
        <mxCell id="XbBQ54yWR8MxngpIoZ2N-4" value="" style="endArrow=none;html=1;rounded=0;fontSize=12;startSize=8;endSize=8;curved=1;entryX=0;entryY=0.5;entryDx=0;entryDy=0;" parent="1" target="6Fi_e5lVrd8VuNeaOpWh-6" edge="1">
          <mxGeometry width="50" height="50" relative="1" as="geometry">
            <mxPoint x="200" y="420" as="sourcePoint" />
            <mxPoint x="310" y="230" as="targetPoint" />
          </mxGeometry>
        </mxCell>
        <mxCell id="XbBQ54yWR8MxngpIoZ2N-5" value="" style="endArrow=none;html=1;rounded=0;fontSize=12;startSize=8;endSize=8;curved=1;entryX=0;entryY=0.5;entryDx=0;entryDy=0;" parent="1" target="6Fi_e5lVrd8VuNeaOpWh-9" edge="1">
          <mxGeometry width="50" height="50" relative="1" as="geometry">
            <mxPoint x="200" y="420" as="sourcePoint" />
            <mxPoint x="310" y="290" as="targetPoint" />
          </mxGeometry>
        </mxCell>
        <mxCell id="XbBQ54yWR8MxngpIoZ2N-6" value="" style="endArrow=none;html=1;rounded=0;fontSize=12;startSize=8;endSize=8;curved=1;exitX=0;exitY=0.5;exitDx=0;exitDy=0;" parent="1" source="6Fi_e5lVrd8VuNeaOpWh-10" edge="1">
          <mxGeometry width="50" height="50" relative="1" as="geometry">
            <mxPoint x="260" y="460" as="sourcePoint" />
            <mxPoint x="200" y="420" as="targetPoint" />
          </mxGeometry>
        </mxCell>
        <mxCell id="XbBQ54yWR8MxngpIoZ2N-10" value="" style="endArrow=none;html=1;rounded=0;fontSize=12;startSize=8;endSize=8;curved=1;exitX=0;exitY=0.5;exitDx=0;exitDy=0;" parent="1" source="6Fi_e5lVrd8VuNeaOpWh-11" edge="1">
          <mxGeometry width="50" height="50" relative="1" as="geometry">
            <mxPoint x="260" y="510" as="sourcePoint" />
            <mxPoint x="200" y="420" as="targetPoint" />
          </mxGeometry>
        </mxCell>
        <mxCell id="XbBQ54yWR8MxngpIoZ2N-11" value="API B3" style="shape=umlActor;verticalLabelPosition=bottom;verticalAlign=top;html=1;outlineConnect=0;" parent="1" vertex="1">
          <mxGeometry x="630" y="390" width="30" height="60" as="geometry" />
        </mxCell>
        <mxCell id="XbBQ54yWR8MxngpIoZ2N-12" value="" style="endArrow=none;html=1;rounded=0;fontSize=12;startSize=8;endSize=8;curved=1;" parent="1" target="XbBQ54yWR8MxngpIoZ2N-11" edge="1">
          <mxGeometry width="50" height="50" relative="1" as="geometry">
            <mxPoint x="560" y="420" as="sourcePoint" />
            <mxPoint x="300" y="310" as="targetPoint" />
          </mxGeometry>
        </mxCell>
        <mxCell id="XbBQ54yWR8MxngpIoZ2N-13" value="" style="endArrow=none;html=1;rounded=0;fontSize=12;startSize=8;endSize=8;curved=1;entryX=1;entryY=0.5;entryDx=0;entryDy=0;" parent="1" target="6Fi_e5lVrd8VuNeaOpWh-16" edge="1">
          <mxGeometry width="50" height="50" relative="1" as="geometry">
            <mxPoint x="560" y="420" as="sourcePoint" />
            <mxPoint x="300" y="310" as="targetPoint" />
          </mxGeometry>
        </mxCell>
        <mxCell id="XbBQ54yWR8MxngpIoZ2N-14" value="" style="endArrow=none;html=1;rounded=0;fontSize=12;startSize=8;endSize=8;curved=1;entryX=1;entryY=0.5;entryDx=0;entryDy=0;" parent="1" target="6Fi_e5lVrd8VuNeaOpWh-6" edge="1">
          <mxGeometry width="50" height="50" relative="1" as="geometry">
            <mxPoint x="560" y="420" as="sourcePoint" />
            <mxPoint x="300" y="310" as="targetPoint" />
          </mxGeometry>
        </mxCell>
        <mxCell id="XbBQ54yWR8MxngpIoZ2N-15" value="" style="endArrow=none;html=1;rounded=0;fontSize=12;startSize=8;endSize=8;curved=1;entryX=1;entryY=0.5;entryDx=0;entryDy=0;" parent="1" target="6Fi_e5lVrd8VuNeaOpWh-9" edge="1">
          <mxGeometry width="50" height="50" relative="1" as="geometry">
            <mxPoint x="560" y="420" as="sourcePoint" />
            <mxPoint x="300" y="310" as="targetPoint" />
          </mxGeometry>
        </mxCell>
        <mxCell id="XbBQ54yWR8MxngpIoZ2N-16" value="" style="endArrow=none;html=1;rounded=0;fontSize=12;startSize=8;endSize=8;curved=1;entryX=1;entryY=0.5;entryDx=0;entryDy=0;" parent="1" target="6Fi_e5lVrd8VuNeaOpWh-10" edge="1">
          <mxGeometry width="50" height="50" relative="1" as="geometry">
            <mxPoint x="560" y="420" as="sourcePoint" />
            <mxPoint x="300" y="310" as="targetPoint" />
          </mxGeometry>
        </mxCell>
        <mxCell id="XbBQ54yWR8MxngpIoZ2N-17" value="" style="endArrow=none;html=1;rounded=0;fontSize=12;startSize=8;endSize=8;curved=1;exitX=1;exitY=0.5;exitDx=0;exitDy=0;" parent="1" source="6Fi_e5lVrd8VuNeaOpWh-11" edge="1">
          <mxGeometry width="50" height="50" relative="1" as="geometry">
            <mxPoint x="250" y="520" as="sourcePoint" />
            <mxPoint x="560" y="420" as="targetPoint" />
          </mxGeometry>
        </mxCell>
        <mxCell id="MwLFwoTEqC4EJp1DN-AQ-4" value="" style="endArrow=none;html=1;rounded=0;entryX=0;entryY=0.5;entryDx=0;entryDy=0;" parent="1" target="MwLFwoTEqC4EJp1DN-AQ-1" edge="1">
          <mxGeometry width="50" height="50" relative="1" as="geometry">
            <mxPoint x="200" y="420" as="sourcePoint" />
            <mxPoint x="380" y="180" as="targetPoint" />
          </mxGeometry>
        </mxCell>
        <mxCell id="MwLFwoTEqC4EJp1DN-AQ-7" value="" style="endArrow=none;html=1;rounded=0;entryX=0;entryY=0.5;entryDx=0;entryDy=0;" parent="1" target="6Fi_e5lVrd8VuNeaOpWh-16" edge="1">
          <mxGeometry width="50" height="50" relative="1" as="geometry">
            <mxPoint x="200" y="420" as="sourcePoint" />
            <mxPoint x="380" y="230" as="targetPoint" />
          </mxGeometry>
        </mxCell>
      </root>
    </mxGraphModel>
  </diagram>
</mxfile>
